<svg width="109" height="88" viewBox="0 0 109 88" fill="none" xmlns="http://www.w3.org/2000/svg">
<path d="M11.6115 62.2H34.7715V31.72L21.2715 45.22L7.77148 31.72V64L5.97148 63.94V29.2H7.77148L21.2715 42.7L34.7715 29.2H36.5715V64L11.6115 63.94V62.2ZM49.7232 60.34C47.5632 57.5 46.4832 52.92 46.4832 46.6C46.4832 40.28 47.5632 35.7 49.7232 32.86C51.8832 30.02 55.4632 28.6 60.4632 28.6C65.4632 28.6 69.0632 29.98 71.2632 32.74L69.9432 33.94C68.1832 31.58 65.0232 30.4 60.4632 30.4C58.4632 30.4 56.7832 30.62 55.4232 31.06C54.0632 31.46 52.8032 32.24 51.6432 33.4C50.5232 34.52 49.6832 36.18 49.1232 38.38C48.5632 40.54 48.2832 43.28 48.2832 46.6C48.2832 49.92 48.5632 52.68 49.1232 54.88C49.6832 57.04 50.5232 58.7 51.6432 59.86C52.8032 60.98 54.0632 61.76 55.4232 62.2C56.7832 62.6 58.4632 62.8 60.4632 62.8C65.0232 62.8 68.1832 61.62 69.9432 59.26L71.2632 60.46C69.0632 63.22 65.4632 64.6 60.4632 64.6C55.4632 64.6 51.8832 63.18 49.7232 60.34ZM94.1898 40.6L102.17 33.94C100.41 31.58 97.2498 30.4 92.6898 30.4C90.6898 30.4 89.0098 30.62 87.6498 31.06C86.2898 31.46 85.0298 32.24 83.8698 33.4C82.7498 34.52 81.9098 36.18 81.3498 38.38C80.7898 40.54 80.5098 43.28 80.5098 46.6C80.5098 49.92 80.7898 52.68 81.3498 54.88C81.9098 57.04 82.7498 58.7 83.8698 59.86C85.0298 60.98 86.2898 61.76 87.6498 62.2C89.0098 62.6 90.6898 62.8 92.6898 62.8C97.2098 62.8 100.35 61.64 102.11 59.32V48.7H103.91V64.54C103.91 72.18 100.41 76 93.4098 76H86.3898V74.2H93.4098C96.4098 74.2 98.6098 73.4 100.01 71.8C101.41 70.24 102.11 67.24 102.11 62.8V61.9C99.9498 63.7 96.8098 64.6 92.6898 64.6C87.6898 64.6 84.1098 63.18 81.9498 60.34C79.7898 57.5 78.7098 52.92 78.7098 46.6C78.7098 40.28 79.7898 35.7 81.9498 32.86C84.1098 30.02 87.6898 28.6 92.6898 28.6C98.4898 28.6 102.43 30.5 104.51 34.3L97.0098 40.6H94.1898Z" fill="url(#paint0_linear)"/>
<defs>
<linearGradient id="paint0_linear" x1="-4.56814e-07" y1="44" x2="109" y2="44" gradientUnits="userSpaceOnUse">
<stop stop-color="#F8C5C5"/>
<stop offset="0.5125" stop-color="#A793D1"/>
<stop offset="1" stop-color="#67A2E8"/>
</linearGradient>
</defs>
</svg>
