<svg width="806" height="303" viewBox="0 0 806 303" fill="none" xmlns="http://www.w3.org/2000/svg">
<path d="M28.2395 302.999C-177.265 303.416 806.239 302.999 806.239 302.999V21.4995C766.961 -95.4138 233.744 302.583 28.2395 302.999Z" fill="url(#wave-decoration-bottom-standard)"/>
<path d="M518.182 174.461L586.963 186.589M518.182 174.461L558.23 149.571M518.182 174.461L546.981 212.234M598.279 124.681L586.963 186.589M598.279 124.681L627.011 161.699M598.279 124.681L558.23 149.571M655.744 198.718L586.963 186.589M655.744 198.718L615.762 224.363M655.744 198.718L627.011 161.699M586.963 186.589L575.781 250.008M586.963 186.589L615.762 224.363M586.963 186.589L627.011 161.699M586.963 186.589L558.23 149.571M586.963 186.589L546.981 212.234M575.781 250.008L615.762 224.363M575.781 250.008L546.981 212.234" stroke="white" stroke-width="1.5"/>
<path d="M620.955 167.702L692.973 141.488M620.955 167.702L644.54 120.458M620.955 167.702L665.468 177.96M764.992 115.273L692.973 141.488M764.992 115.273L716.559 94.2438M764.992 115.273L737.487 151.746M692.973 141.488L668.125 73.2142M692.973 141.488L709.981 188.219M692.973 141.488L716.559 94.2438M692.973 141.488L644.54 120.458M692.973 141.488L737.487 151.746M692.973 141.488L665.468 177.96M668.125 73.2142L716.559 94.2438M668.125 73.2142L644.54 120.458M709.981 188.219L737.487 151.746M709.981 188.219L665.468 177.96" stroke="white" stroke-width="1.5"/>
<path d="M757.152 182.738L685.133 208.952M757.152 182.738L733.566 229.982M757.152 182.738L712.639 172.48M613.114 235.167L685.133 208.952M613.114 235.167L661.548 256.196M613.114 235.167L640.62 198.694M685.133 208.952L709.981 277.226M685.133 208.952L668.125 162.221M685.133 208.952L661.548 256.196M685.133 208.952L733.566 229.982M685.133 208.952L640.62 198.694M685.133 208.952L712.639 172.48M709.981 277.226L661.548 256.196M709.981 277.226L733.566 229.982M668.125 162.221L640.62 198.694M668.125 162.221L712.639 172.48" stroke="white" stroke-width="4"/>
<circle cx="416" cy="196" r="6" fill="white"/>
<circle cx="340" cy="280" r="6" fill="white"/>
<path d="M389.808 237.378C389.998 236.632 390.924 236.372 391.475 236.909L398.914 244.167C399.465 244.704 399.227 245.637 398.486 245.845L388.482 248.659C387.741 248.867 387.052 248.195 387.242 247.449L389.808 237.378Z" fill="white"/>
<rect x="259.02" y="257.835" width="12" height="11" rx="2" transform="rotate(-7.86413 259.02 257.835)" fill="white"/>
<rect x="455.16" y="261.437" width="12" height="11" rx="2" transform="rotate(-20.6875 455.16 261.437)" fill="white"/>
<defs>
<linearGradient id="wave-decoration-bottom-standard" x1="-3.37891e-06" y1="151.592" x2="806.239" y2="151.592" gradientUnits="userSpaceOnUse">
<stop stop-color="#F8C5C5"/>
<stop offset="0.5125" stop-color="#A793D1"/>
<stop offset="1" stop-color="#67A2E8"/>
</linearGradient>
</defs>
</svg>
