<svg width="32" height="32" viewBox="0 0 32 32" fill="none" xmlns="http://www.w3.org/2000/svg">
<ellipse cx="15.95" cy="16" rx="15.95" ry="16" fill="url(#educationIconGradient)"/>
<path fill-rule="evenodd" clip-rule="evenodd" d="M6.06376 12.1162L14.4938 7.51625C15.0938 7.19625 15.8138 7.19625 16.4138 7.51625L25.9338 12.7062C26.2538 12.8862 26.4538 13.2162 26.4538 13.5862V19.9962C26.4538 20.5462 26.0038 20.9962 25.4538 20.9962C24.9038 20.9962 24.4538 20.5462 24.4538 19.9962V14.0862L16.4138 18.4762C15.8138 18.8062 15.0938 18.8062 14.4938 18.4762L6.06376 13.8762C5.37376 13.4962 5.37376 12.4962 6.06376 12.1162ZM8.45376 19.9862V17.1762L14.4938 20.4762C15.0938 20.8062 15.8138 20.8062 16.4138 20.4762L22.4538 17.1762V19.9862C22.4538 20.7162 22.0538 21.3962 21.4138 21.7462L16.4138 24.4762C15.8138 24.8062 15.0938 24.8062 14.4938 24.4762L9.49376 21.7462C8.85376 21.3962 8.45376 20.7162 8.45376 19.9862Z" fill="white"/>
<defs>
<linearGradient id="educationIconGradient" x1="-1.33691e-07" y1="16" x2="31.9" y2="16" gradientUnits="userSpaceOnUse">
<stop stop-color="#F8C5C5"/>
<stop offset="0.5125" stop-color="#A793D1"/>
<stop offset="1" stop-color="#67A2E8"/>
</linearGradient>
</defs>
</svg>
