<svg width="1337" height="2250" viewBox="0 0 1337 2250" fill="none" xmlns="http://www.w3.org/2000/svg">
<rect width="779" height="2250" fill="white"/>
<rect x="780" width="557" height="2250" fill="url(#paint0_linear)"/>
<ellipse cx="778.5" cy="1124.56" rx="229.5" ry="209.565" fill="white"/>
<path fill-rule="evenodd" clip-rule="evenodd" d="M933.365 1162.74C915.943 1226.01 853.189 1273.03 778.176 1273.03C738.542 1273.03 702.331 1259.91 674.42 1238.19C710.342 1232.43 753.759 1218.76 798.737 1197.93C851.864 1191.26 899.022 1178.48 933.365 1162.74ZM934.03 1160.23C933.8 1160.34 933.568 1160.44 933.336 1160.55C900.485 1175.74 855.539 1188.24 804.691 1195.13C806.565 1194.24 808.442 1193.34 810.32 1192.42C863.278 1166.59 907.676 1135.91 936.689 1107.15C937.668 1113.68 938.174 1120.34 938.174 1127.11C938.174 1138.49 936.741 1149.58 934.03 1160.23ZM935.736 1161.64C918.702 1226.68 854.623 1275.03 778.176 1275.03C737.427 1275.03 700.193 1261.29 671.724 1238.61C627.724 1245.26 595.443 1239.76 586.145 1220.7C580.851 1209.84 583.611 1195.82 592.94 1180.11C576.705 1171.74 566.933 1161.31 565.671 1149.3C563.604 1129.64 584.715 1109.39 620.657 1092.41C637.754 1027.45 701.791 979.183 778.176 979.183C818.786 979.183 855.907 992.828 884.339 1015.37C928.696 1008.56 961.271 1014.02 970.617 1033.18C975.912 1044.03 973.151 1058.06 963.822 1073.76C980.058 1082.14 989.829 1092.57 991.092 1104.58C993.165 1124.31 971.903 1144.63 935.736 1161.64ZM883.78 1017.48C849.371 1022.87 807.835 1035.65 764.554 1055.16C766.617 1054.93 768.687 1054.7 770.766 1054.48C827.732 1048.49 880.27 1050.68 919.759 1059.09C910.613 1043.29 898.378 1029.19 883.78 1017.48ZM881.644 1015.8C845.859 1021.63 802.712 1035.26 758.025 1055.95C704.709 1062.64 657.405 1075.49 623.032 1091.31C640.519 1028.12 703.228 981.183 778.176 981.183C817.673 981.183 853.772 994.218 881.644 1015.8ZM620.02 1094.93C603.189 1103.02 589.857 1111.78 580.833 1120.75C571.192 1130.34 566.698 1139.93 567.66 1149.09C568.622 1158.24 575.012 1166.69 586.436 1174.06C588.757 1175.56 591.275 1177.01 593.98 1178.4C599.781 1169.03 607.864 1159.09 617.92 1148.89C616.772 1141.78 616.177 1134.51 616.177 1127.11C616.177 1116.06 617.504 1105.29 620.02 1094.93ZM619.672 1147.13C618.686 1140.58 618.177 1133.9 618.177 1127.11C618.177 1115.66 619.624 1104.52 622.362 1093.82C622.715 1093.66 623.07 1093.49 623.426 1093.33C656.277 1078.14 701.223 1065.64 752.071 1058.74C750.197 1059.63 748.321 1060.54 746.443 1061.45C693.24 1087.4 648.676 1118.25 619.672 1147.13ZM620.062 1149.56C620.464 1149.16 620.868 1148.76 621.275 1148.35C650.09 1119.73 694.377 1089.07 747.319 1063.25C751.083 1061.42 754.838 1059.63 758.583 1057.89C762.678 1057.38 766.81 1056.91 770.975 1056.47C828.632 1050.41 881.66 1052.76 921.079 1061.42C928.49 1074.81 933.707 1089.37 936.3 1104.72C936.03 1104.99 935.76 1105.26 935.487 1105.53C906.673 1134.15 862.385 1164.8 809.443 1190.63C805.68 1192.46 801.924 1194.25 798.179 1195.98C794.084 1196.5 789.952 1196.97 785.788 1197.41C727.799 1203.5 674.493 1201.09 635.004 1192.3C627.746 1179.07 622.628 1164.7 620.062 1149.56ZM618.336 1151.32C608.87 1161.04 601.271 1170.46 595.774 1179.3C605.747 1184.19 618.096 1188.37 632.403 1191.71C625.708 1179.14 620.907 1165.57 618.336 1151.32ZM633.68 1194.06C618.476 1190.62 605.319 1186.23 594.73 1181.02C593.173 1183.63 591.805 1186.19 590.63 1188.69C584.851 1201 583.909 1211.55 587.943 1219.82C591.977 1228.09 600.871 1233.85 614.129 1236.87C627.364 1239.89 644.625 1240.1 664.784 1237.56C666.377 1237.36 667.987 1237.14 669.615 1236.9C654.951 1224.81 642.722 1210.3 633.68 1194.06ZM672.288 1236.5C706.832 1231.18 748.635 1218.36 792.207 1198.71C790.145 1198.95 788.075 1199.18 785.997 1199.4C728.698 1205.42 675.879 1203.17 636.314 1194.64C645.43 1210.54 657.667 1224.72 672.288 1236.5ZM938.442 1105.4C948.684 1095.05 956.904 1084.97 962.783 1075.48C965.488 1076.87 968.006 1078.32 970.327 1079.81C981.751 1087.19 988.141 1095.64 989.103 1104.79C990.065 1113.94 985.571 1123.54 975.93 1133.13C966.839 1142.17 953.376 1150.99 936.369 1159.12C938.861 1148.81 940.174 1138.1 940.174 1127.11C940.174 1119.73 939.583 1112.48 938.442 1105.4ZM938.028 1102.97C935.427 1088.5 930.528 1074.74 923.685 1062.01C938.279 1065.37 950.859 1069.61 960.988 1074.58C955.414 1083.54 947.68 1093.1 938.028 1102.97ZM922.397 1059.67C937.892 1063.13 951.285 1067.57 962.032 1072.86C963.589 1070.25 964.958 1067.69 966.132 1065.19C971.912 1052.88 972.854 1042.33 968.82 1034.06C964.786 1025.78 955.892 1020.03 942.634 1017.01C929.399 1013.99 912.138 1013.78 891.979 1016.32C890.159 1016.55 888.316 1016.8 886.452 1017.08C901.094 1029.1 913.324 1043.52 922.397 1059.67Z" fill="url(#paint1_linear)"/>
<defs>
<linearGradient id="paint0_linear" x1="780" y1="1125" x2="1337" y2="1125" gradientUnits="userSpaceOnUse">
<stop stop-color="#F8C5C5"/>
<stop offset="0.5125" stop-color="#A793D1"/>
<stop offset="1" stop-color="#67A2E8"/>
</linearGradient>
<linearGradient id="paint1_linear" x1="565.532" y1="1127.11" x2="991.231" y2="1127.11" gradientUnits="userSpaceOnUse">
<stop stop-color="#F8C5C5"/>
<stop offset="0.5125" stop-color="#A793D1"/>
<stop offset="1" stop-color="#67A2E8"/>
</linearGradient>
</defs>
</svg>
