<svg width="32" height="32" viewBox="0 0 32 32" fill="none" xmlns="http://www.w3.org/2000/svg">
<ellipse cx="15.95" cy="16" rx="15.95" ry="16" fill="white"/>
<path fill-rule="evenodd" clip-rule="evenodd" d="M9 13.265C9 9.395 12.13 6.265 16 6.265C19.87 6.265 23 9.395 23 13.265C23 17.435 18.58 23.185 16.77 25.375C16.37 25.855 15.64 25.855 15.24 25.375C13.42 23.185 9 17.435 9 13.265ZM13.5 13.265C13.5 14.645 14.62 15.765 16 15.765C17.38 15.765 18.5 14.645 18.5 13.265C18.5 11.885 17.38 10.765 16 10.765C14.62 10.765 13.5 11.885 13.5 13.265Z" fill="#A793D1"/>
</svg>
