<svg width="239" height="199" viewBox="0 0 239 199" fill="none" xmlns="http://www.w3.org/2000/svg">
<path d="M17.1122 44.6H47.9922V3.96L29.9922 21.96L11.9922 3.96V47L9.59219 46.92V0.599997H11.9922L29.9922 18.6L47.9922 0.599997H50.3922V47L17.1122 46.92V44.6ZM18.4356 110.12C15.5556 106.333 14.1156 100.227 14.1156 91.8C14.1156 83.3733 15.5556 77.2667 18.4356 73.48C21.3156 69.6933 26.089 67.8 32.7556 67.8C39.4223 67.8 44.2223 69.64 47.1556 73.32L45.3956 74.92C43.049 71.7733 38.8356 70.2 32.7556 70.2C30.089 70.2 27.849 70.4933 26.0356 71.08C24.2223 71.6133 22.5423 72.6533 20.9956 74.2C19.5023 75.6933 18.3823 77.9067 17.6356 80.84C16.889 83.72 16.5156 87.3733 16.5156 91.8C16.5156 96.2267 16.889 99.9067 17.6356 102.84C18.3823 105.72 19.5023 107.933 20.9956 109.48C22.5423 110.973 24.2223 112.013 26.0356 112.6C27.849 113.133 30.089 113.4 32.7556 113.4C38.8356 113.4 43.049 111.827 45.3956 108.68L47.1556 110.28C44.2223 113.96 39.4223 115.8 32.7556 115.8C26.089 115.8 21.3156 113.907 18.4356 110.12ZM33.4275 151.8L44.0675 142.92C41.7208 139.773 37.5075 138.2 31.4275 138.2C28.7608 138.2 26.5208 138.493 24.7075 139.08C22.8942 139.613 21.2142 140.653 19.6675 142.2C18.1742 143.693 17.0542 145.907 16.3075 148.84C15.5608 151.72 15.1875 155.373 15.1875 159.8C15.1875 164.227 15.5608 167.907 16.3075 170.84C17.0542 173.72 18.1742 175.933 19.6675 177.48C21.2142 178.973 22.8942 180.013 24.7075 180.6C26.5208 181.133 28.7608 181.4 31.4275 181.4C37.4542 181.4 41.6408 179.853 43.9875 176.76V162.6H46.3875V183.72C46.3875 193.907 41.7208 199 32.3875 199H23.0275V196.6H32.3875C36.3875 196.6 39.3208 195.533 41.1875 193.4C43.0542 191.32 43.9875 187.32 43.9875 181.4V180.2C41.1075 182.6 36.9208 183.8 31.4275 183.8C24.7608 183.8 19.9875 181.907 17.1075 178.12C14.2275 174.333 12.7875 168.227 12.7875 159.8C12.7875 151.373 14.2275 145.267 17.1075 141.48C19.9875 137.693 24.7608 135.8 31.4275 135.8C39.1608 135.8 44.4142 138.333 47.1875 143.4L37.1875 151.8H33.4275Z" fill="url(#name-logo)"/>
<path d="M71.72 27.24V48H69.12V27.24H71.72ZM70.44 19.88C70.84 19.88 71.1867 20.0267 71.48 20.32C71.7733 20.6133 71.92 20.9733 71.92 21.4C71.92 21.8 71.7733 22.16 71.48 22.48C71.1867 22.7733 70.84 22.92 70.44 22.92C70.0133 22.92 69.6533 22.7733 69.36 22.48C69.0667 22.16 68.92 21.8 68.92 21.4C68.92 20.9733 69.0667 20.6133 69.36 20.32C69.6533 20.0267 70.0133 19.88 70.44 19.88ZM98.5472 33.68H95.9472C95.6805 32.1867 95.0405 31.0267 94.0272 30.2C93.0139 29.3733 91.7339 28.96 90.1872 28.96C87.9472 28.96 86.2139 29.8267 84.9872 31.56C83.9205 33.08 83.3872 35.0533 83.3872 37.48C83.3872 40.36 84.0939 42.6 85.5072 44.2C86.7339 45.5867 88.3205 46.28 90.2672 46.28C93.5739 46.28 95.5472 44.4267 96.1872 40.72H98.6672C98.2405 43.3867 97.2005 45.4133 95.5472 46.8C94.0805 47.9733 92.2805 48.56 90.1472 48.56C87.1072 48.56 84.7339 47.4533 83.0272 45.24C81.5605 43.2933 80.8272 40.7733 80.8272 37.68C80.8272 34.1333 81.8139 31.3467 83.7872 29.32C85.4939 27.56 87.6672 26.68 90.3072 26.68C92.7072 26.68 94.6672 27.3867 96.1872 28.8C97.4939 30.0533 98.2805 31.68 98.5472 33.68ZM107.316 48V19.36H109.876V29.92C111.37 27.76 113.53 26.68 116.356 26.68C118.89 26.68 120.783 27.4667 122.036 29.04C122.89 30.1067 123.316 31.8267 123.316 34.2V48H120.756V34.56C120.756 32.8267 120.476 31.56 119.916 30.76C119.116 29.56 117.823 28.96 116.036 28.96C114.116 28.96 112.57 29.6267 111.396 30.96C110.383 32.1333 109.876 33.5733 109.876 35.28V48H107.316ZM135.982 33.56H133.262C133.369 28.9733 136.129 26.68 141.542 26.68C146.635 26.68 149.182 28.76 149.182 32.92V44.56C149.182 45.5733 149.515 46.08 150.182 46.08C150.449 46.08 150.889 45.9067 151.502 45.56V47.8C150.675 48.0933 149.982 48.24 149.422 48.24C147.555 48.24 146.622 47.2933 146.622 45.4V44.92C145.022 47.3467 142.515 48.56 139.102 48.56C136.835 48.56 135.089 47.96 133.862 46.76C132.795 45.72 132.262 44.3333 132.262 42.6C132.262 40.7067 132.889 39.2133 134.142 38.12C135.102 37.2933 136.649 36.72 138.782 36.4L146.502 35.16C146.529 34.9733 146.542 34.7867 146.542 34.6C146.542 32.36 146.182 30.8667 145.462 30.12C144.769 29.3467 143.422 28.96 141.422 28.96C139.609 28.96 138.262 29.3333 137.382 30.08C136.529 30.8 136.062 31.96 135.982 33.56ZM146.622 37.2L139.222 38.56C136.395 39.04 134.982 40.36 134.982 42.52C134.982 43.72 135.395 44.68 136.222 45.4C137.049 46.0933 138.155 46.44 139.542 46.44C142.209 46.44 144.222 45.44 145.582 43.44C146.275 42.4267 146.622 41.1467 146.622 39.6V37.2ZM176.533 38.04H161.013C161.093 40.8133 161.813 42.92 163.173 44.36C164.346 45.64 165.893 46.28 167.813 46.28C170.826 46.28 172.866 44.68 173.933 41.48H176.533C175.066 46.2 172.133 48.56 167.733 48.56C164.666 48.56 162.293 47.4667 160.613 45.28C159.146 43.3333 158.413 40.8133 158.413 37.72C158.413 34.1733 159.373 31.3733 161.293 29.32C162.973 27.56 165.106 26.68 167.693 26.68C170.6 26.68 172.853 27.7333 174.453 29.84C175.866 31.68 176.573 34.0933 176.573 37.08C176.573 37.2667 176.56 37.5867 176.533 38.04ZM173.893 35.96C173.786 33.7733 173.186 32.0667 172.093 30.84C171 29.5867 169.546 28.96 167.733 28.96C165.92 28.96 164.44 29.5733 163.293 30.8C162.146 32 161.426 33.72 161.133 35.96H173.893ZM188.403 19.36V48H185.683V19.36H188.403ZM201.068 33.56H198.348C198.454 28.9733 201.214 26.68 206.628 26.68C211.721 26.68 214.268 28.76 214.268 32.92V44.56C214.268 45.5733 214.601 46.08 215.268 46.08C215.534 46.08 215.974 45.9067 216.588 45.56V47.8C215.761 48.0933 215.068 48.24 214.508 48.24C212.641 48.24 211.708 47.2933 211.708 45.4V44.92C210.108 47.3467 207.601 48.56 204.188 48.56C201.921 48.56 200.174 47.96 198.948 46.76C197.881 45.72 197.348 44.3333 197.348 42.6C197.348 40.7067 197.974 39.2133 199.228 38.12C200.188 37.2933 201.734 36.72 203.868 36.4L211.588 35.16C211.614 34.9733 211.628 34.7867 211.628 34.6C211.628 32.36 211.268 30.8667 210.548 30.12C209.854 29.3467 208.508 28.96 206.508 28.96C204.694 28.96 203.348 29.3333 202.468 30.08C201.614 30.8 201.148 31.96 201.068 33.56ZM211.708 37.2L204.308 38.56C201.481 39.04 200.068 40.36 200.068 42.52C200.068 43.72 200.481 44.68 201.308 45.4C202.134 46.0933 203.241 46.44 204.628 46.44C207.294 46.44 209.308 45.44 210.668 43.44C211.361 42.4267 211.708 41.1467 211.708 39.6V37.2Z" fill="#747474"/>
<path d="M71.56 100.56H68.84C68.9467 95.9733 71.7067 93.68 77.12 93.68C82.2133 93.68 84.76 95.76 84.76 99.92V111.56C84.76 112.573 85.0933 113.08 85.76 113.08C86.0267 113.08 86.4667 112.907 87.08 112.56V114.8C86.2533 115.093 85.56 115.24 85 115.24C83.1333 115.24 82.2 114.293 82.2 112.4V111.92C80.6 114.347 78.0933 115.56 74.68 115.56C72.4133 115.56 70.6667 114.96 69.44 113.76C68.3733 112.72 67.84 111.333 67.84 109.6C67.84 107.707 68.4667 106.213 69.72 105.12C70.68 104.293 72.2267 103.72 74.36 103.4L82.08 102.16C82.1067 101.973 82.12 101.787 82.12 101.6C82.12 99.36 81.76 97.8667 81.04 97.12C80.3467 96.3467 79 95.96 77 95.96C75.1867 95.96 73.84 96.3333 72.96 97.08C72.1067 97.8 71.64 98.96 71.56 100.56ZM82.2 104.2L74.8 105.56C71.9733 106.04 70.56 107.36 70.56 109.52C70.56 110.72 70.9733 111.68 71.8 112.4C72.6267 113.093 73.7333 113.44 75.12 113.44C77.7867 113.44 79.8 112.44 81.16 110.44C81.8533 109.427 82.2 108.147 82.2 106.6V104.2ZM102.391 94.24V96.32H98.5513V110.96C98.5513 111.653 98.6579 112.133 98.8713 112.4C99.1113 112.64 99.5246 112.76 100.111 112.76C100.778 112.76 101.511 112.627 102.311 112.36L102.751 114.76C101.311 115.107 100.138 115.28 99.2313 115.28C97.9779 115.28 97.0979 114.973 96.5913 114.36C96.0846 113.747 95.8313 112.693 95.8313 111.2V96.32H92.8713V94.24H95.8313V89.96L98.5513 88.2V94.24H102.391ZM110.754 115V86.36H113.314V96.92C114.807 94.76 116.967 93.68 119.794 93.68C122.327 93.68 124.22 94.4667 125.474 96.04C126.327 97.1067 126.754 98.8267 126.754 101.2V115H124.194V101.56C124.194 99.8267 123.914 98.56 123.354 97.76C122.554 96.56 121.26 95.96 119.474 95.96C117.554 95.96 116.007 96.6267 114.834 97.96C113.82 99.1333 113.314 100.573 113.314 102.28V115H110.754ZM153.939 105.04H138.419C138.499 107.813 139.219 109.92 140.579 111.36C141.753 112.64 143.299 113.28 145.219 113.28C148.233 113.28 150.273 111.68 151.339 108.48H153.939C152.473 113.2 149.539 115.56 145.139 115.56C142.073 115.56 139.699 114.467 138.019 112.28C136.553 110.333 135.819 107.813 135.819 104.72C135.819 101.173 136.779 98.3733 138.699 96.32C140.379 94.56 142.513 93.68 145.099 93.68C148.006 93.68 150.259 94.7333 151.859 96.84C153.273 98.68 153.979 101.093 153.979 104.08C153.979 104.267 153.966 104.587 153.939 105.04ZM151.299 102.96C151.193 100.773 150.593 99.0667 149.499 97.84C148.406 96.5867 146.953 95.96 145.139 95.96C143.326 95.96 141.846 96.5733 140.699 97.8C139.553 99 138.833 100.72 138.539 102.96H151.299ZM163.09 94.24H165.65L165.53 97.96C166.57 95.2933 168.543 93.96 171.45 93.96C171.663 93.96 172.01 93.9733 172.49 94L172.45 96.64C172.05 96.56 171.77 96.52 171.61 96.52C169.61 96.5467 168.063 97.32 166.97 98.84C166.09 100.067 165.65 101.813 165.65 104.08V115H163.09V94.24ZM183.048 94.24V115H180.448V94.24H183.048ZM181.768 86.88C182.168 86.88 182.515 87.0267 182.808 87.32C183.101 87.6133 183.248 87.9733 183.248 88.4C183.248 88.8 183.101 89.16 182.808 89.48C182.515 89.7733 182.168 89.92 181.768 89.92C181.341 89.92 180.981 89.7733 180.688 89.48C180.395 89.16 180.248 88.8 180.248 88.4C180.248 87.9733 180.395 87.6133 180.688 87.32C180.981 87.0267 181.341 86.88 181.768 86.88ZM193.355 94.24H195.915V97.2C197.515 94.8533 199.675 93.68 202.395 93.68C204.795 93.68 206.609 94.4 207.835 95.84C208.769 96.9333 209.235 98.6 209.235 100.84V115H206.675V101.4C206.675 99.48 206.342 98.1467 205.675 97.4C204.875 96.44 203.675 95.96 202.075 95.96C200.289 95.96 198.795 96.5733 197.595 97.8C196.475 98.92 195.915 100.587 195.915 102.8V115H193.355V94.24ZM236.424 105.04H220.904C220.984 107.813 221.704 109.92 223.064 111.36C224.237 112.64 225.784 113.28 227.704 113.28C230.717 113.28 232.757 111.68 233.824 108.48H236.424C234.957 113.2 232.024 115.56 227.624 115.56C224.557 115.56 222.184 114.467 220.504 112.28C219.037 110.333 218.304 107.813 218.304 104.72C218.304 101.173 219.264 98.3733 221.184 96.32C222.864 94.56 224.997 93.68 227.584 93.68C230.49 93.68 232.744 94.7333 234.344 96.84C235.757 98.68 236.464 101.093 236.464 104.08C236.464 104.267 236.45 104.587 236.424 105.04ZM233.784 102.96C233.677 100.773 233.077 99.0667 231.984 97.84C230.89 96.5867 229.437 95.96 227.624 95.96C225.81 95.96 224.33 96.5733 223.184 97.8C222.037 99 221.317 100.72 221.024 102.96H233.784Z" fill="#747474"/>
<path d="M69.16 161.24H71.72L71.6 164.96C72.64 162.293 74.6133 160.96 77.52 160.96C77.7333 160.96 78.08 160.973 78.56 161L78.52 163.64C78.12 163.56 77.84 163.52 77.68 163.52C75.68 163.547 74.1333 164.32 73.04 165.84C72.16 167.067 71.72 168.813 71.72 171.08V182H69.16V161.24ZM103.478 172.04H87.9584C88.0384 174.813 88.7584 176.92 90.1184 178.36C91.2918 179.64 92.8384 180.28 94.7584 180.28C97.7718 180.28 99.8118 178.68 100.878 175.48H103.478C102.012 180.2 99.0784 182.56 94.6784 182.56C91.6118 182.56 89.2384 181.467 87.5584 179.28C86.0918 177.333 85.3584 174.813 85.3584 171.72C85.3584 168.173 86.3184 165.373 88.2384 163.32C89.9184 161.56 92.0518 160.68 94.6384 160.68C97.5451 160.68 99.7984 161.733 101.398 163.84C102.812 165.68 103.518 168.093 103.518 171.08C103.518 171.267 103.505 171.587 103.478 172.04ZM100.838 169.96C100.732 167.773 100.132 166.067 99.0384 164.84C97.9451 163.587 96.4918 162.96 94.6784 162.96C92.8651 162.96 91.3851 163.573 90.2384 164.8C89.0918 166 88.3718 167.72 88.0784 169.96H100.838ZM129.549 172.04H114.029C114.109 174.813 114.829 176.92 116.189 178.36C117.362 179.64 118.909 180.28 120.829 180.28C123.842 180.28 125.882 178.68 126.949 175.48H129.549C128.082 180.2 125.149 182.56 120.749 182.56C117.682 182.56 115.309 181.467 113.629 179.28C112.162 177.333 111.429 174.813 111.429 171.72C111.429 168.173 112.389 165.373 114.309 163.32C115.989 161.56 118.122 160.68 120.709 160.68C123.615 160.68 125.869 161.733 127.469 163.84C128.882 165.68 129.589 168.093 129.589 171.08C129.589 171.267 129.575 171.587 129.549 172.04ZM126.909 169.96C126.802 167.773 126.202 166.067 125.109 164.84C124.015 163.587 122.562 162.96 120.749 162.96C118.935 162.96 117.455 163.573 116.309 164.8C115.162 166 114.442 167.72 114.149 169.96H126.909ZM138.699 161.24H141.259V164.2C142.859 161.853 145.019 160.68 147.739 160.68C150.139 160.68 151.952 161.4 153.179 162.84C154.112 163.933 154.579 165.6 154.579 167.84V182H152.019V168.4C152.019 166.48 151.686 165.147 151.019 164.4C150.219 163.44 149.019 162.96 147.419 162.96C145.632 162.96 144.139 163.573 142.939 164.8C141.819 165.92 141.259 167.587 141.259 169.8V182H138.699V161.24Z" fill="#747474"/>
<defs>
<linearGradient id="name-logo" x1="-2.51457e-07" y1="88" x2="60" y2="88" gradientUnits="userSpaceOnUse">
<stop stop-color="#F8C5C5"/>
<stop offset="0.5125" stop-color="#A793D1"/>
<stop offset="1" stop-color="#67A2E8"/>
</linearGradient>
</defs>
</svg>
