<svg width="588" height="537" viewBox="0 0 588 537" fill="none" xmlns="http://www.w3.org/2000/svg">
<ellipse cx="294" cy="268.462" rx="294" ry="268.462" fill="white"/>
<path fill-rule="evenodd" clip-rule="evenodd" d="M493.057 317.058C470.845 398.61 390.084 459.215 293.584 459.215C242.499 459.215 195.824 442.23 159.911 414.145C206.074 406.829 261.989 389.271 319.925 362.445C388.328 353.859 449.007 337.358 493.057 317.058ZM493.722 314.545C493.345 314.721 492.967 314.896 492.588 315.072C450.067 334.729 391.78 350.864 325.882 359.657C328.838 358.259 331.799 356.837 334.763 355.391C402.906 322.156 459.986 282.645 497.142 245.663C498.441 254.18 499.112 262.878 499.112 271.718C499.112 286.447 497.248 300.786 493.722 314.545ZM495.427 315.955C473.606 399.273 391.517 461.215 293.584 461.215C241.384 461.215 193.685 443.616 157.215 414.562C100.849 423.076 59.4954 416.033 47.5848 391.613C40.802 377.706 44.3387 359.745 56.2893 339.622C35.4909 328.889 22.9733 315.531 21.3559 300.143C18.7089 274.958 45.7522 249.021 91.7962 227.274C113.699 144.06 195.733 82.2206 293.584 82.2206C345.609 82.2206 393.162 99.7005 429.584 128.579C486.408 119.855 528.138 126.842 540.111 151.392C546.894 165.299 543.357 183.261 531.407 203.384C552.205 214.117 564.723 227.475 566.34 242.863C568.996 268.134 541.758 294.162 495.427 315.955ZM429.026 130.689C384.413 137.646 330.459 154.294 274.3 179.768C277.548 179.388 280.812 179.024 284.092 178.68C357.427 170.972 425.032 173.844 475.702 184.746C463.882 164.19 448.002 145.873 429.026 130.689ZM426.889 129.003C380.899 136.403 325.332 153.908 267.77 180.561C199.124 189.177 138.257 205.765 94.1695 226.164C116.464 144.719 197.169 84.2206 293.584 84.2206C344.495 84.2206 391.026 101.089 426.889 129.003ZM91.1529 229.794C69.3629 240.224 52.0774 251.547 40.3826 263.179C27.9727 275.523 22.0875 287.97 23.345 299.934C24.6025 311.898 32.9468 322.849 47.652 332.343C50.6307 334.266 53.8591 336.121 57.3255 337.906C64.7775 325.765 75.2361 312.866 88.2903 299.618C86.8189 290.512 86.0568 281.196 86.0568 271.718C86.0568 257.311 87.8174 243.28 91.1529 229.794ZM90.0399 297.855C88.7325 289.312 88.0568 280.586 88.0568 271.718C88.0568 256.914 89.9399 242.505 93.5007 228.682C94.0337 228.432 94.5694 228.183 95.1076 227.934C137.629 208.276 195.916 192.142 261.813 183.349C258.857 184.747 255.897 186.169 252.933 187.614C184.475 221.004 127.182 260.726 90.0399 297.855ZM90.4314 300.297C91.013 299.71 91.5999 299.123 92.1918 298.534C129.159 261.81 185.949 222.51 253.81 189.412C258.661 187.046 263.502 184.744 268.328 182.507C273.607 181.846 278.933 181.233 284.301 180.669C358.328 172.888 426.424 175.922 477.021 187.081C486.656 204.425 493.422 223.314 496.752 243.225C496.338 243.64 495.923 244.055 495.504 244.471C458.537 281.195 401.747 320.495 333.886 353.593C329.035 355.96 324.194 358.262 319.367 360.499C314.088 361.159 308.763 361.773 303.395 362.337C228.942 370.162 160.488 367.048 109.803 355.732C100.365 338.583 93.7266 319.937 90.4314 300.297ZM88.7018 302.054C76.2378 314.819 66.265 327.196 59.1166 338.811C72.1514 345.279 88.3723 350.778 107.196 355.139C98.3281 338.65 92.0073 320.812 88.7018 302.054ZM108.479 357.484C88.7592 353.026 71.7276 347.321 58.0773 340.528C56.0833 343.878 54.3287 347.162 52.8217 350.371C45.3821 366.215 44.1088 379.924 49.3824 390.736C54.656 401.549 66.2426 408.986 83.3081 412.878C100.351 416.764 122.535 417.029 148.395 413.767C150.604 413.489 152.84 413.184 155.1 412.855C136.055 397.263 120.183 378.503 108.479 357.484ZM157.778 412.454C202.563 405.581 256.861 388.882 313.395 363.237C310.147 363.618 306.884 363.981 303.604 364.326C229.843 372.079 161.877 369.128 111.111 358.068C122.892 378.745 138.773 397.175 157.778 412.454ZM498.893 243.907C512.186 230.476 522.821 217.399 530.37 205.1C533.837 206.884 537.065 208.74 540.044 210.663C554.749 220.157 563.093 231.108 564.351 243.072C565.608 255.036 559.723 267.482 547.313 279.826C535.533 291.544 518.081 302.947 496.066 313.439C499.369 300.015 501.112 286.052 501.112 271.718C501.112 262.27 500.355 252.984 498.893 243.907ZM498.483 241.473C495.14 222.442 488.694 204.358 479.633 187.667C498.826 192.059 515.345 197.628 528.579 204.195C521.333 215.968 511.186 228.524 498.483 241.473ZM478.339 185.324C498.431 189.811 515.766 195.584 529.619 202.478C531.613 199.128 533.367 195.843 534.874 192.634C542.314 176.79 543.587 163.081 538.314 152.269C533.04 141.456 521.454 134.02 504.388 130.128C487.345 126.241 465.161 125.976 439.301 129.238C436.801 129.553 434.268 129.901 431.703 130.282C450.721 145.778 466.594 164.425 478.339 185.324Z" fill="url(#planet-decoration)"/>
<defs>
<linearGradient id="planet-decoration" x1="21.178" y1="271.718" x2="566.518" y2="271.718" gradientUnits="userSpaceOnUse">
<stop stop-color="#F8C5C5"/>
<stop offset="0.5125" stop-color="#A793D1"/>
<stop offset="1" stop-color="#67A2E8"/>
</linearGradient>
</defs>
</svg>
