<svg width="32" height="32" viewBox="0 0 32 32" fill="none" xmlns="http://www.w3.org/2000/svg">
<ellipse cx="15.95" cy="16" rx="15.95" ry="16" fill="white"/>
<path fill-rule="evenodd" clip-rule="evenodd" d="M19.1866 18.4716H19.9766L24.2166 22.7316C24.6266 23.1416 24.6266 23.8116 24.2166 24.2216C23.8066 24.6316 23.1366 24.6316 22.7266 24.2216L18.4766 19.9716V19.1816L18.2066 18.9016C16.8066 20.1016 14.8966 20.7216 12.8666 20.3816C10.0866 19.9116 7.86658 17.5916 7.52658 14.7916C7.00658 10.5616 10.5666 7.00156 14.7966 7.52156C17.5966 7.86156 19.9166 10.0816 20.3866 12.8616C20.7266 14.8916 20.1066 16.8016 18.9066 18.2016L19.1866 18.4716ZM9.47658 13.9716C9.47658 16.4616 11.4866 18.4716 13.9766 18.4716C16.4666 18.4716 18.4766 16.4616 18.4766 13.9716C18.4766 11.4816 16.4666 9.47156 13.9766 9.47156C11.4866 9.47156 9.47658 11.4816 9.47658 13.9716Z" fill="#A793D1"/>
</svg>
